HIERARCHY
ROOT hip
{
  OFFSET 0 0 0
  CHANNELS 6 Xposition Yposition Zposition Zrotation Yrotation Xrotation
  JOINT abdomen
  {
    OFFSET 0 20.6881 -0.73152
    CHANNELS 3 Zrotation Xrotation Yrotation
    JOINT chest
    {
      OFFSET 0 11.7043 -0.48768
      CHANNELS 3 Zrotation Xrotation Yrotation
      JOINT neck
      {
        OFFSET 0 22.1894 -2.19456
        CHANNELS 3 Zrotation Xrotation Yrotation
        JOINT head
        {
          OFFSET -0.24384 7.07133 1.2192
          CHANNELS 3 Zrotation Xrotation Yrotation
          JOINT leftEye
          {
            OFFSET 4.14528 8.04674 8.04672
            CHANNELS 3 Zrotation Xrotation Yrotation
            End Site
            {
              OFFSET 1 0 0
            }
          }
          JOINT rightEye
          {
            OFFSET -3.6576 8.04674 8.04672
            CHANNELS 3 Zrotation Xrotation Yrotation
            End Site
            {
              OFFSET 1 0 0
            }
          }
        }
      }
      JOINT rCollar
      {
        OFFSET -2.68224 19.2634 -4.8768
        CHANNELS 3 Zrotation Xrotation Yrotation
        JOINT rShldr
        {
          OFFSET -8.77824 -1.95073 1.46304
          CHANNELS 3 Zrotation Xrotation Yrotation
          JOINT rForeArm
          {
            OFFSET -28.1742 -1.7115 0.48768
            CHANNELS 3 Zrotation Xrotation Yrotation
            JOINT rHand
            {
              OFFSET -22.5879 0.773209 7.07136
              CHANNELS 3 Zrotation Xrotation Yrotation
              JOINT rThumb1
              {
                OFFSET -1.2192 -0.487915 3.41376
                CHANNELS 3 Zrotation Xrotation Yrotation
                JOINT rThumb2
                {
                  OFFSET -3.37035 -0.52449 3.41376
                  CHANNELS 3 Zrotation Xrotation Yrotation
                  End Site
                  {
                    OFFSET -1.78271 -1.18214 1.43049
                  }
                }
              }
              JOINT rIndex1
              {
                OFFSET -7.75947 0.938293 5.60832
                CHANNELS 3 Zrotation Xrotation Yrotation
                JOINT rIndex2
                {
                  OFFSET -2.54057 -0.884171 1.56538
                  CHANNELS 3 Zrotation Xrotation Yrotation
                  End Site
                  {
                    OFFSET -1.62519 -0.234802 1.16502
                  }
                }
              }
              JOINT rMid1
              {
                OFFSET -8.24714 1.18213 3.41376
                CHANNELS 3 Zrotation Xrotation Yrotation
                JOINT rMid2
                {
                  OFFSET -3.10165 -0.590103 1.0647
                  CHANNELS 3 Zrotation Xrotation Yrotation
                  End Site
                  {
                    OFFSET -2.48547 -0.328903 0.83742
                  }
                }
              }
              JOINT rRing1
              {
                OFFSET -8.82822 0.546677 1.51678
                CHANNELS 3 Zrotation Xrotation Yrotation
                JOINT rRing2
                {
                  OFFSET -2.60934 -0.819778 -0.0198488
                  CHANNELS 3 Zrotation Xrotation Yrotation
                  End Site
                  {
                    OFFSET -2.33842 -0.294052 0.168128
                  }
                }
              }
              JOINT rPinky1
              {
                OFFSET -8.27202 -0.0477905 -0.4584
                CHANNELS 3 Zrotation Xrotation Yrotation
                JOINT rPinky2
                {
                  OFFSET -1.82734 -0.647385 -0.700984
                  CHANNELS 3 Zrotation Xrotation Yrotation
                  End Site
                  {
                    OFFSET -1.69225 -0.51767 -0.607171
                  }
                }
              }
            }
          }
        }
      }
      JOINT lCollar
      {
        OFFSET 2.68224 19.2634 -4.8768
        CHANNELS 3 Zrotation Xrotation Yrotation
        JOINT lShldr
        {
          OFFSET 8.77824 -1.95073 1.46304
          CHANNELS 3 Zrotation Xrotation Yrotation
          JOINT lForeArm
          {
            OFFSET 28.1742 -1.7115 0.48768
            CHANNELS 3 Zrotation Xrotation Yrotation
            JOINT lHand
            {
              OFFSET 22.5879 0.773209 7.07136
              CHANNELS 3 Zrotation Xrotation Yrotation
              JOINT lThumb1
              {
                OFFSET 1.2192 -0.487915 3.41376
                CHANNELS 3 Zrotation Xrotation Yrotation
                JOINT lThumb2
                {
                  OFFSET 3.37035 -0.52449 3.41376
                  CHANNELS 3 Zrotation Xrotation Yrotation
                  End Site
                  {
                    OFFSET 1.78271 -1.18214 1.43049
                  }
                }
              }
              JOINT lIndex1
              {
                OFFSET 7.75947 0.938293 5.60832
                CHANNELS 3 Zrotation Xrotation Yrotation
                JOINT lIndex2
                {
                  OFFSET 2.54057 -0.884171 1.56538
                  CHANNELS 3 Zrotation Xrotation Yrotation
                  End Site
                  {
                    OFFSET 1.62519 -0.234802 1.16502
                  }
                }
              }
              JOINT lMid1
              {
                OFFSET 8.24714 1.18213 3.41376
                CHANNELS 3 Zrotation Xrotation Yrotation
                JOINT lMid2
                {
                  OFFSET 3.10165 -0.590103 1.0647
                  CHANNELS 3 Zrotation Xrotation Yrotation
                  End Site
                  {
                    OFFSET 2.48547 -0.328903 0.83742
                  }
                }
              }
              JOINT lRing1
              {
                OFFSET 8.82822 0.546677 1.51678
                CHANNELS 3 Zrotation Xrotation Yrotation
                JOINT lRing2
                {
                  OFFSET 2.60934 -0.819778 -0.0198488
                  CHANNELS 3 Zrotation Xrotation Yrotation
                  End Site
                  {
                    OFFSET 2.33842 -0.294052 0.168128
                  }
                }
              }
              JOINT lPinky1
              {
                OFFSET 8.27202 -0.0477905 -0.4584
                CHANNELS 3 Zrotation Xrotation Yrotation
                JOINT lPinky2
                {
                  OFFSET 1.82734 -0.647385 -0.700984
                  CHANNELS 3 Zrotation Xrotation Yrotation
                  End Site
                  {
                    OFFSET 1.69225 -0.51767 -0.607171
                  }
                }
              }
            }
          }
        }
      }
    }
  }
  JOINT rButtock
  {
    OFFSET -8.77824 4.35084 1.2192
    CHANNELS 3 Zrotation Xrotation Yrotation
    JOINT rThigh
    {
      OFFSET 0 -1.70687 -2.19456
      CHANNELS 3 Zrotation Xrotation Yrotation
      JOINT rShin
      {
        OFFSET 0 -36.8199 0.73152
        CHANNELS 3 Zrotation Xrotation Yrotation
        JOINT rFoot
        {
          OFFSET 0.73152 -45.1104 -5.12064
          CHANNELS 3 Zrotation Xrotation Yrotation
          End Site
          {
            OFFSET -1.1221 -3.69964 12.103
          }
        }
      }
    }
  }
  JOINT lButtock
  {
    OFFSET 8.77824 4.35084 1.2192
    CHANNELS 3 Zrotation Xrotation Yrotation
    JOINT lThigh
    {
      OFFSET 0 -1.70687 -2.19456
      CHANNELS 3 Zrotation Xrotation Yrotation
      JOINT lShin
      {
        OFFSET 0 -36.8199 0.73152
        CHANNELS 3 Zrotation Xrotation Yrotation
        JOINT lFoot
        {
          OFFSET -0.73152 -45.1104 -5.12064
          CHANNELS 3 Zrotation Xrotation Yrotation
          End Site
          {
            OFFSET 1.1221 -3.69964 12.103
          }
        }
      }
    }
  }
}
MOTION
Frames:	7
Frame Time:	0.00833333
43.6851 82.354 -8.63791 4.6427 5.2238 6.7747 -6.21518 -3.49647 -0.91328 2.53788 -4.19223 -0.252266 -3.64841 5.1281 -0.0714861 0.412934 -18.9582 0.62848 -0.0 0.0 0.0 -0.0 0.0 0.0 -1.79488e-14 6.81831e-14 -1.04859e-13 74.328 -23.4743 -38.9663 -7.13809 -2.57547 12.5333 -0.864703 25.4281 3.83125 4.99494e-11 4.46327e-11 -1.12162e-09 6.40512e-11 6.08599e-11 -1.94036e-09 4.99538e-11 4.46351e-11 -1.12163e-09 7.73091 5.47488 0.417314 4.99475e-11 4.46323e-11 -1.12162e-09 2.90554 0.965183 0.102902 4.99545e-11 4.46323e-11 -1.12162e-09 10.2786 0.731801 0.0259123 4.99472e-11 4.46331e-11 -1.12162e-09 2.22167 -0.733487 -0.20892 -1.7933e-14 6.81835e-14 -1.05008e-13 -61.1774 31.8241 -29.8363 24.0995 -19.2843 -49.9259 1.24958 -30.0198 4.6579 6.03287e-10 1.01848e-08 -5.30676e-10 1.05299e-09 1.76071e-08 -9.01756e-10 6.03284e-10 1.01848e-08 -5.30669e-10 -7.73091 5.47488 -0.417314 6.03291e-10 1.01848e-08 -5.30672e-10 -2.90554 0.965183 -0.102902 6.03276e-10 1.01848e-08 -5.30678e-10 -10.2786 0.731801 -0.0259123 6.03291e-10 1.01848e-08 -5.30682e-10 -2.22167 -0.733487 0.20892 -2.03217e-16 0.0 -3.88251e-19 -4.92562 -43.6826 2.84557 -0.0419409 24.5827 1.38761 -0.269536 -8.68263 2.42219 2.03217e-16 0.0 3.88251e-19 -7.28835 13.2238 -1.05254 -0.104522 11.902 -1.05445 0.564305 -0.893921 -5.19608
43.4989 82.2187 -7.14976 4.2752 4.9369 6.8978 -5.291 -3.68708 -0.822144 2.38763 -4.14666 -0.225239 -3.74791 5.07895 0.043033 0.261631 -18.9486 0.855187 -0.0 0.0 0.0 -0.0 0.0 0.0 -4.15655e-15 -9.50976e-16 -6.62877e-14 73.866 -23.7815 -39.2366 -7.09726 -2.55567 12.4593 -0.888611 25.7607 3.88841 -1.36353e-11 -5.61736e-11 -6.68951e-10 -3.6725e-11 -1.06707e-10 -1.15725e-09 -1.36315e-11 -5.61718e-11 -6.68965e-10 7.73091 5.47488 0.417314 -1.36376e-11 -5.61745e-11 -6.68949e-10 2.90554 0.965183 0.102902 -1.36318e-11 -5.61746e-11 -6.68949e-10 10.2786 0.731801 0.0259123 -1.36384e-11 -5.61724e-11 -6.68946e-10 2.22167 -0.733487 -0.20892 -4.15695e-15 -9.52834e-16 -6.64391e-14 -61.5646 32.0127 -29.0313 24.3231 -19.7099 -50.6684 1.27318 -30.2678 4.70472 4.51006e-10 6.32495e-09 -1.27475e-10 7.81017e-10 1.08787e-08 -2.09029e-10 4.51003e-10 6.32495e-09 -1.27468e-10 -7.73091 5.47488 -0.417314 4.5101e-10 6.32495e-09 -1.27471e-10 -2.90554 0.965183 -0.102902 4.50996e-10 6.32495e-09 -1.27477e-10 -10.2786 0.731801 -0.0259123 4.5101e-10 6.32495e-09 -1.27483e-10 -2.22167 -0.733487 0.20892 -2.03217e-16 0.0 -3.88251e-19 -3.95608 -44.1266 3.35026 -0.0672872 25.9715 1.31307 -0.387811 -6.90752 2.19781 2.03217e-16 0.0 3.88251e-19 -6.73989 12.3492 -1.09848 -0.116235 14.377 -1.06563 0.66069 0.810896 -5.01254
43.4077 82.129 -5.65144 4.0801 4.6113 7.0591 -4.19896 -3.97488 -0.737061 2.25004 -4.08672 -0.189866 -3.86672 4.98929 0.175528 0.065636 -18.8091 1.11627 -0.0 0.0 0.0 -0.0 0.0 0.0 1.61804e-14 -4.89362e-14 1.60332e-14 73.3041 -24.2496 -39.4358 -7.02953 -2.52285 12.3367 -0.942256 26.4703 4.01196 -7.07928e-11 -9.4028e-11 -2.56431e-10 -1.27377e-10 -1.66607e-10 -4.43109e-10 -7.07899e-11 -9.40274e-11 -2.56446e-10 7.73091 5.47488 0.417314 -7.07956e-11 -9.40297e-11 -2.56426e-10 2.90554 0.965183 0.102902 -7.07918e-11 -9.403e-11 -2.56426e-10 10.2786 0.731801 0.0259123 -7.07979e-11 -9.40254e-11 -2.56423e-10 2.22167 -0.733487 -0.20892 1.6148e-14 -4.89406e-14 1.58779e-14 -62.1078 32.1708 -28.0852 24.5124 -20.084 -51.2886 1.29332 -30.4784 4.7446 9.8242e-11 4.55591e-11 2.62405e-10 1.63852e-10 2.60858e-12 4.55311e-10 9.82373e-11 4.55649e-11 2.62416e-10 -7.73091 5.47488 -0.417314 9.82457e-11 4.55649e-11 2.6241e-10 -2.90554 0.965183 -0.102902 9.82347e-11 4.55604e-11 2.62405e-10 -10.2786 0.731801 -0.0259123 9.82453e-11 4.55671e-11 2.62397e-10 -2.22167 -0.733487 0.20892 -2.03217e-16 0.0 -3.88251e-19 -2.73682 -44.7852 4.17487 -0.0950851 27.4266 1.19678 -0.53573 -5.09648 1.70016 2.03217e-16 0.0 3.88251e-19 -6.0697 10.6603 -1.17173 -0.132678 17.9258 -1.08447 0.734218 2.65374 -4.90539
43.2543 81.9407 -4.15046 3.7416 4.314 7.1589 -3.06555 -4.22904 -0.638992 2.1165 -4.0359 -0.14787 -3.94979 4.87662 0.318006 -0.2141 -18.6305 1.3777 -0.0 0.0 0.0 -0.0 0.0 0.0 3.51201e-14 -7.95092e-14 1.026e-13 72.7802 -24.6853 -39.5167 -6.96099 -2.48964 12.213 -1.00584 27.258 4.15168 -5.66822e-11 -5.20773e-11 7.46724e-11 -9.66427e-11 -9.01721e-11 1.28887e-10 -5.66802e-11 -5.20778e-11 7.46573e-11 7.73091 5.47488 0.417314 -5.66854e-11 -5.20797e-11 7.46805e-11 2.90554 0.965183 0.102902 -5.66835e-11 -5.20801e-11 7.468e-11 10.2786 0.731801 0.0259123 -5.66893e-11 -5.20732e-11 7.46837e-11 2.22167 -0.733487 -0.20892 3.50548e-14 -7.95161e-14 1.02444e-13 -62.7916 32.3342 -27.0043 24.6759 -20.4167 -51.8256 1.3102 -30.6538 4.77792 -2.44387e-10 -5.87583e-09 5.80528e-10 -4.34177e-10 -1.0241e-08 9.95902e-10 -2.44393e-10 -5.87582e-09 5.80542e-10 -7.73091 5.47488 -0.417314 -2.44383e-10 -5.87582e-09 5.80535e-10 -2.90554 0.965183 -0.102902 -2.44392e-10 -5.87582e-09 5.8053e-10 -10.2786 0.731801 -0.0259123 -2.44384e-10 -5.87582e-09 5.80519e-10 -2.22167 -0.733487 0.20892 -2.03217e-16 0.0 -3.88251e-19 -1.48936 -45.4534 4.97584 -0.122109 28.9581 1.07136 -0.63178 -3.45277 1.26084 2.03217e-16 0.0 3.88251e-19 -5.39644 8.68085 -1.22131 -0.137744 21.8262 -1.10657 0.824791 4.73724 -4.6005
42.9863 81.6654 -2.75065 2.8765 4.0913 7.2505 -2.01787 -4.31874 -0.508917 1.97849 -4.01769 -0.10097 -3.94227 4.75845 0.462494 -0.614593 -18.5042 1.60605 -0.0 0.0 0.0 -0.0 0.0 0.0 4.47205e-14 -9.64063e-14 1.53909e-13 72.435 -24.8959 -39.4265 -6.91789 -2.46877 12.1353 -1.0542 27.8252 4.25398 9.35373e-11 8.65318e-11 2.83092e-10 1.66741e-10 1.51264e-10 4.85571e-10 9.35389e-11 8.65306e-11 2.83076e-10 7.73091 5.47488 0.417314 9.3534e-11 8.6529e-11 2.83101e-10 2.90554 0.965183 0.102902 9.35355e-11 8.65286e-11 2.831e-10 10.2786 0.731801 0.0259123 9.35292e-11 8.65365e-11 2.83104e-10 2.22167 -0.733487 -0.20892 4.46362e-14 -9.64156e-14 1.5376e-13 -63.6033 32.5392 -25.7934 24.8201 -20.7151 -52.3192 1.32408 -30.7961 4.80508 -3.66263e-10 -8.66165e-09 7.68457e-10 -6.48745e-10 -1.50718e-08 1.31738e-09 -3.6627e-10 -8.66165e-09 7.68473e-10 -7.73091 5.47488 -0.417314 -3.6626e-10 -8.66165e-09 7.68463e-10 -2.90554 0.965183 -0.102902 -3.66266e-10 -8.66165e-09 7.68459e-10 -10.2786 0.731801 -0.0259123 -3.66261e-10 -8.66164e-09 7.68447e-10 -2.22167 -0.733487 0.20892 -2.03217e-16 0.0 -3.88251e-19 -0.471472 -45.9358 5.38376 -0.148906 30.5759 0.971137 -0.637759 -2.1816 1.20743 2.03217e-16 0.0 3.88251e-19 -4.83004 6.93424 -1.19661 -0.118063 25.3558 -1.12351 0.926975 7.16687 -3.82086
42.8028 81.4563 -1.32784 2.1068 3.8107 7.1989 -1.09948 -4.18057 -0.339013 1.82037 -4.06428 -0.0492262 -3.79681 4.61251 0.618744 -1.22513 -18.4154 1.79974 -0.0 0.0 0.0 -0.0 0.0 0.0 3.99106e-14 -9.68202e-14 1.54119e-13 72.253 -24.8402 -39.1836 -6.90393 -2.46196 12.1103 -1.08522 28.1782 4.31829 5.25707e-10 4.2982e-10 3.38424e-10 9.13974e-10 7.43365e-10 5.70833e-10 5.25709e-10 4.29819e-10 3.38407e-10 7.73091 5.47488 0.417314 5.25703e-10 4.29817e-10 3.38433e-10 2.90554 0.965183 0.102902 5.25707e-10 4.29817e-10 3.38431e-10 10.2786 0.731801 0.0259123 5.25699e-10 4.29824e-10 3.38436e-10 2.22167 -0.733487 -0.20892 3.98288e-14 -9.68317e-14 1.53996e-13 -64.6661 32.7808 -24.3156 24.9674 -21.0252 -52.8395 1.33042 -30.859 4.8172 -9.90645e-11 -6.38229e-09 7.97105e-10 -1.89214e-10 -1.11706e-08 1.37393e-09 -9.90707e-11 -6.38229e-09 7.9712e-10 -7.73091 5.47488 -0.417314 -9.90626e-11 -6.38229e-09 7.9711e-10 -2.90554 0.965183 -0.102902 -9.90681e-11 -6.38229e-09 7.97107e-10 -10.2786 0.731801 -0.0259123 -9.90626e-11 -6.38229e-09 7.97096e-10 -2.22167 -0.733487 0.20892 -2.03217e-16 0.0 -3.88251e-19 0.145784 -46.2241 5.16929 -0.181149 32.4168 0.909599 -0.553565 -1.36463 1.71257 2.03217e-16 0.0 3.88251e-19 -4.44631 5.57519 -1.06296 -0.0723982 28.3249 -1.13249 0.96129 10.198 -2.44047
42.7163 81.3103 0.201794 1.6535 3.3505 6.9396 -0.241466 -3.89377 -0.140489 1.65133 -4.15452 0.00815776 -3.55312 4.43844 0.787017 -1.99916 -18.3287 1.97425 -0.0 0.0 0.0 -0.0 0.0 0.0 2.59106e-14 -8.00259e-14 1.26067e-13 72.1753 -24.6154 -38.8048 -6.90628 -2.463 12.1146 -1.10929 28.4476 4.36768 1.16239e-09 9.34289e-10 2.69145e-10 2.01187e-09 1.6115e-09 4.35895e-10 1.1624e-09 9.34289e-10 2.69126e-10 7.73091 5.47488 0.417314 1.16239e-09 9.34287e-10 2.69151e-10 2.90554 0.965183 0.102902 1.1624e-09 9.34287e-10 2.69149e-10 10.2786 0.731801 0.0259123 1.16239e-09 9.34292e-10 2.69154e-10 2.22167 -0.733487 -0.20892 2.58435e-14 -8.00397e-14 1.25983e-13 -65.949 33.0321 -22.6096 25.109 -21.3309 -53.3449 1.33039 -30.8569 4.8169 4.07494e-10 -9.15429e-10 7.0214e-10 6.85614e-10 -1.76825e-09 1.22318e-09 4.0749e-10 -9.15432e-10 7.02153e-10 -7.73091 5.47488 -0.417314 4.07495e-10 -9.15429e-10 7.02141e-10 -2.90554 0.965183 -0.102902 4.07489e-10 -9.15433e-10 7.02142e-10 -10.2786 0.731801 -0.0259123 4.07495e-10 -9.15429e-10 7.02132e-10 -2.22167 -0.733487 0.20892 -2.03217e-16 0.0 -3.88251e-19 0.515735 -46.4086 4.55976 -0.218882 34.4307 0.868166 -0.420659 -0.884114 2.57085 2.03217e-16 0.0 3.88251e-19 -4.16241 4.31927 -0.855096 -0.00876689 31.1179 -1.13681 0.800108 13.6954 -0.595643
